<?xml version="1.0" standalone="no"?>
<!DOCTYPE svg PUBLIC "-//W3C//DTD SVG 20010904//EN"
 "http://www.w3.org/TR/2001/REC-SVG-20010904/DTD/svg10.dtd">
<svg version="1.0" xmlns="http://www.w3.org/2000/svg"
 width="4084.000000pt" height="1026.000000pt" viewBox="0 0 4084.000000 1026.000000"
 preserveAspectRatio="xMidYMid meet">

<g transform="translate(0.000000,1026.000000) scale(0.100000,-0.100000)"
fill="#000000" stroke="none">
<path d="M7624 9507 c-33 -29 -147 -126 -253 -216 l-192 -163 -112 42 c-392
147 -661 202 -1007 204 -247 1 -336 -11 -690 -95 -310 -73 -647 -209 -888
-358 -257 -158 -497 -362 -666 -565 -205 -247 -324 -445 -524 -871 -39 -82
-96 -204 -127 -270 -628 -1321 -687 -1472 -951 -2445 -41 -151 -86 -315 -99
-365 -14 -49 -36 -130 -49 -180 -23 -84 -43 -166 -145 -603 -67 -283 -130
-623 -166 -882 -3 -25 -21 -153 -40 -285 -20 -132 -37 -256 -40 -275 -4 -35 0
-40 183 -220 103 -102 219 -216 258 -254 l72 -68 12 53 c40 185 63 308 90 494
16 116 32 224 35 240 2 17 9 68 15 115 32 250 91 615 121 750 6 25 39 180 74
345 115 544 393 1601 556 2120 28 88 58 183 66 210 79 265 461 1239 590 1503
132 272 370 560 698 846 287 251 590 436 878 537 310 109 526 144 849 137
l213 -5 36 41 c20 23 61 55 90 71 47 26 65 29 134 30 68 0 88 -4 133 -28 67
-35 122 -93 157 -168 l28 -58 131 -45 c366 -124 710 -317 901 -503 84 -81 123
-136 160 -223 79 -186 104 -310 85 -422 -16 -92 -60 -223 -94 -277 -58 -91
-155 -162 -285 -207 -120 -42 -165 -47 -461 -48 -231 -1 -299 -5 -359 -19 -41
-10 -77 -19 -79 -22 -2 -2 16 -33 41 -69 153 -218 288 -456 344 -606 25 -66
112 -402 158 -616 31 -140 43 -330 26 -419 -14 -75 -63 -176 -104 -216 -84
-80 -232 -126 -416 -128 -95 -2 -133 3 -206 22 -147 40 -179 59 -300 182 -101
103 -185 169 -260 207 -87 44 -303 72 -383 50 -23 -7 -23 -7 10 -38 18 -17 65
-53 103 -80 177 -124 267 -247 301 -415 28 -142 64 -189 184 -243 162 -72 230
-108 260 -138 116 -117 134 -237 80 -543 -152 -864 -275 -1631 -381 -2370 -49
-346 -103 -710 -120 -808 -17 -98 -29 -180 -27 -182 1 -2 120 -5 262 -7 l259
-3 3 25 c14 131 109 917 119 987 3 18 25 216 50 440 25 225 56 496 69 603 13
107 29 245 36 305 6 61 20 166 30 235 10 69 21 148 24 175 15 124 48 294 91
465 35 142 53 244 70 408 8 81 17 165 21 187 3 22 8 54 10 70 12 83 20 89 165
120 121 25 233 102 281 193 30 55 44 116 54 233 l6 85 108 12 c60 7 126 19
149 27 44 15 131 77 171 120 14 15 84 69 155 120 139 99 263 220 329 319 84
127 136 296 136 441 0 95 -11 119 -105 215 -82 84 -228 264 -303 373 -27 40
-66 114 -86 165 l-36 93 34 67 c121 240 174 451 162 637 -10 139 -28 200 -105
355 -108 218 -183 329 -296 444 -143 145 -302 250 -545 360 -47 21 -87 40 -89
42 -2 2 28 45 66 96 78 104 111 163 142 257 32 97 25 202 -12 201 -7 0 -39
-24 -73 -53z m581 -2647 c36 -62 51 -79 67 -77 16 2 37 -25 105 -138 138 -230
192 -312 260 -398 82 -103 95 -134 95 -222 0 -122 -56 -204 -224 -331 -75 -57
-103 -85 -125 -126 -37 -69 -102 -109 -215 -132 -46 -9 -95 -16 -110 -16 l-28
0 0 86 c0 78 -2 85 -17 79 -10 -4 -39 -10 -65 -12 l-48 -6 0 96 c0 212 -45
359 -230 742 -40 83 -90 190 -111 240 -40 91 -57 179 -41 204 18 25 116 42
295 52 97 5 205 16 240 23 105 23 101 25 152 -64z"/>
<path d="M6568 8852 c-76 -106 -218 -291 -395 -514 -116 -146 -153 -201 -125
-185 4 3 93 -4 197 -14 105 -10 205 -19 222 -19 33 0 34 2 119 173 118 235
134 285 135 417 0 119 -5 153 -32 191 -36 52 -53 45 -121 -49z"/>
<path d="M12076 8395 l-16 -25 -375 0 c-323 0 -375 -2 -375 -15 0 -8 9 -19 20
-25 19 -10 20 -21 20 -409 0 -385 -1 -398 -20 -416 -11 -10 -20 -22 -20 -27 0
-4 169 -8 375 -8 364 0 375 -1 387 -20 27 -43 38 -23 38 70 0 50 -3 90 -6 90
-4 0 -17 -11 -30 -25 l-23 -25 -296 0 -295 0 2 168 c2 92 6 166 11 165 4 -2
90 -3 192 -3 185 0 186 0 209 -25 13 -13 26 -22 29 -18 11 10 8 183 -3 183 -5
0 -17 -11 -26 -25 l-17 -25 -196 2 -196 3 0 150 0 150 283 3 282 3 31 -30 c17
-17 35 -31 40 -31 5 0 9 43 9 95 0 52 -4 95 -9 95 -5 0 -16 -11 -25 -25z"/>
<path d="M14130 8325 c0 -103 11 -120 41 -66 l17 28 271 2 c172 1 271 -1 271
-8 0 -5 -11 -22 -23 -38 -13 -15 -79 -100 -147 -188 -68 -88 -151 -196 -185
-240 -230 -298 -255 -331 -255 -338 0 -3 171 -8 381 -9 349 -3 382 -4 393 -20
24 -33 31 -18 31 69 0 60 -4 88 -12 90 -7 3 -13 -3 -13 -11 0 -30 -50 -36
-316 -36 l-265 0 67 88 c61 78 296 384 460 599 34 45 68 91 74 102 l11 21
-380 0 -379 0 -6 25 c-4 14 -13 25 -21 25 -12 0 -15 -18 -15 -95z"/>
<path d="M15828 8395 l-11 -25 -379 0 c-321 0 -378 -2 -378 -14 0 -8 9 -17 19
-21 10 -3 22 -16 25 -28 3 -12 6 -189 6 -394 l0 -371 -25 -30 c-14 -17 -25
-33 -25 -36 0 -3 169 -6 375 -6 363 0 376 -1 392 -20 10 -11 21 -20 25 -20 5
0 8 41 8 90 0 53 -4 90 -10 90 -5 0 -10 -4 -10 -9 0 -5 -7 -17 -16 -25 -13
-14 -56 -16 -310 -16 l-294 0 0 168 0 167 192 -3 c191 -2 193 -3 215 -27 12
-14 25 -25 28 -25 3 0 5 43 5 95 0 96 -8 115 -28 70 l-12 -25 -200 0 -200 0 0
154 0 155 286 0 286 1 28 -30 c16 -17 31 -30 34 -30 3 0 6 43 6 95 0 97 -10
118 -32 70z"/>
<path d="M21580 7925 l0 -455 8405 0 8405 0 0 455 0 455 -8405 0 -8405 0 0
-455z"/>
<path d="M10160 8356 c0 -8 9 -18 20 -21 20 -6 20 -15 20 -409 0 -390 -1 -403
-20 -421 -11 -10 -20 -22 -20 -27 0 -4 45 -8 100 -8 100 0 121 7 76 28 -14 6
-26 22 -30 42 -3 18 -6 179 -6 358 l0 325 73 -79 c147 -157 539 -599 544 -612
3 -7 -4 -20 -16 -28 -11 -8 -21 -19 -21 -25 0 -5 50 -9 115 -9 114 0 133 6 97
32 -10 7 -21 22 -25 32 -9 23 -10 757 -1 779 3 9 14 19 25 22 10 4 19 13 19
21 0 11 -20 14 -100 14 -83 0 -98 -2 -94 -15 3 -8 14 -17 25 -20 18 -6 19 -20
19 -338 l-1 -332 -37 40 c-62 67 -363 405 -435 487 -77 89 -90 122 -58 144 11
8 21 19 21 25 0 5 -61 9 -145 9 -119 0 -145 -3 -145 -14z"/>
<path d="M12210 8359 c0 -6 9 -13 20 -16 28 -7 60 -67 110 -203 23 -63 80
-217 126 -342 46 -125 84 -238 84 -251 0 -13 -9 -32 -20 -42 -11 -10 -20 -22
-20 -27 0 -4 56 -8 125 -8 124 0 148 7 104 31 -18 9 -21 18 -17 53 5 42 218
636 228 636 4 0 12 -17 19 -37 7 -21 53 -148 102 -283 48 -135 94 -266 101
-292 11 -44 10 -49 -10 -71 -12 -13 -22 -26 -22 -30 0 -11 238 -8 245 2 3 5
-3 12 -14 16 -43 13 -43 13 114 450 24 66 63 176 86 244 40 112 47 125 76 139
18 9 33 22 33 29 0 10 -27 13 -115 13 -63 0 -115 -4 -115 -9 0 -5 11 -16 25
-25 15 -10 25 -26 25 -40 0 -20 -63 -201 -212 -609 l-21 -59 -113 319 c-111
312 -132 393 -99 393 8 0 15 7 15 15 0 13 -20 15 -120 15 -118 0 -142 -7 -100
-30 37 -20 25 -73 -85 -381 -58 -162 -105 -300 -105 -306 0 -45 -29 23 -130
300 -62 171 -115 326 -117 344 -4 24 0 34 16 42 43 24 20 31 -99 31 -80 0
-120 -4 -120 -11z"/>
<path d="M16320 8355 c0 -8 6 -15 14 -15 45 0 29 -44 -175 -485 -110 -238
-141 -298 -176 -333 -24 -23 -43 -45 -43 -47 0 -3 50 -5 110 -5 61 0 110 3
110 6 0 3 -9 17 -20 31 -21 27 -23 20 41 171 l22 52 234 0 234 0 45 -94 c48
-102 51 -117 29 -136 -30 -25 -13 -30 95 -30 61 0 110 4 110 9 0 5 -11 18 -24
28 -19 14 -156 266 -156 287 0 4 -27 62 -143 307 -30 64 -62 140 -72 169 -18
54 -18 54 4 68 11 8 21 18 21 23 0 5 -58 9 -130 9 -109 0 -130 -2 -130 -15z
m212 -308 c48 -105 90 -200 93 -209 7 -17 -6 -18 -188 -18 l-195 0 96 210 c52
116 98 210 101 210 3 0 45 -87 93 -193z"/>
<path d="M17050 8357 c0 -8 11 -19 25 -25 l25 -12 0 -395 0 -396 -25 -23 c-14
-13 -25 -26 -25 -30 0 -3 168 -6 373 -6 361 0 375 -1 392 -20 10 -11 22 -20
27 -20 4 0 8 41 8 90 0 50 -3 90 -6 90 -3 0 -15 -11 -26 -25 l-19 -25 -295 0
-294 0 0 375 0 375 25 16 c14 9 25 23 25 30 0 11 -22 14 -105 14 -81 0 -105
-3 -105 -13z"/>
<path d="M18250 8360 c0 -6 7 -13 15 -16 35 -14 26 -47 -86 -292 -209 -460
-244 -529 -278 -550 -17 -10 -28 -22 -24 -25 8 -9 223 -9 223 -1 0 4 -11 17
-25 30 -28 26 -29 22 26 142 l38 82 231 0 231 0 45 -94 c50 -105 52 -121 24
-138 -11 -7 -20 -16 -20 -20 0 -5 54 -8 120 -8 66 0 120 3 120 8 0 4 -16 21
-35 37 -27 24 -63 93 -181 350 -80 176 -159 346 -175 377 -34 68 -36 88 -9 95
11 3 20 12 20 19 0 11 -26 14 -130 14 -83 0 -130 -4 -130 -10z m224 -333 c48
-109 86 -201 83 -203 -2 -2 -87 -3 -189 -2 l-184 3 60 135 c34 75 76 169 94
209 18 41 37 70 41 65 4 -5 47 -98 95 -207z"/>
<path d="M18980 8360 c0 -6 11 -15 25 -20 l25 -10 0 -408 0 -409 -25 -11 c-49
-22 -27 -32 75 -32 55 0 100 4 100 8 0 5 -11 18 -25 30 l-25 22 0 345 c0 190
2 345 4 345 3 0 91 -98 197 -217 106 -120 214 -240 240 -268 109 -117 169
-190 169 -207 0 -10 -9 -23 -20 -30 -11 -7 -20 -16 -20 -20 0 -5 54 -8 120 -8
121 0 146 8 95 32 l-25 11 0 407 0 407 25 11 c49 22 27 32 -75 32 -55 0 -100
-4 -100 -9 0 -5 11 -16 25 -25 l25 -16 0 -325 c0 -179 -2 -325 -4 -325 -14 0
-534 586 -549 618 -10 21 -8 27 11 42 43 35 28 40 -123 40 -92 0 -145 -4 -145
-10z"/>
<path d="M20130 8358 c0 -7 10 -18 23 -23 l22 -10 3 -397 2 -398 -25 -22 c-14
-12 -25 -26 -25 -31 0 -6 116 -7 298 -4 327 5 389 15 473 72 115 80 187 252
174 412 -16 189 -117 336 -265 385 -59 19 -92 22 -372 26 -256 3 -308 2 -308
-10z m503 -78 c123 -12 184 -37 241 -101 53 -59 76 -119 83 -221 15 -203 -77
-348 -241 -383 -41 -8 -136 -14 -246 -15 l-180 -1 0 360 c0 278 3 360 13 364
21 9 227 7 330 -3z"/>
<path d="M28015 6798 c-353 -45 -543 -96 -805 -216 -235 -107 -540 -356 -711
-580 -44 -57 -79 -105 -79 -107 0 -2 -19 -36 -43 -77 -88 -150 -157 -359 -192
-581 -10 -65 -15 -168 -15 -301 0 -173 3 -220 24 -326 76 -387 238 -702 497
-960 272 -273 655 -472 1024 -534 241 -40 346 -48 580 -43 619 13 1003 146
1555 537 52 37 105 70 117 74 25 8 61 -8 132 -59 l46 -33 33 26 32 27 -78 100
c-43 55 -149 192 -236 305 -88 113 -165 211 -172 219 -10 11 -18 10 -48 -8
-20 -13 -36 -25 -36 -27 0 -3 9 -22 19 -42 25 -49 35 -102 26 -142 -11 -48
-150 -182 -280 -268 -229 -153 -524 -274 -747 -306 -217 -31 -363 -39 -527
-26 -430 32 -752 171 -1047 453 -165 158 -254 284 -336 477 -80 189 -108 336
-108 577 0 143 4 192 25 297 31 153 43 192 109 331 69 144 145 251 259 361
203 197 397 316 653 400 200 65 311 79 624 79 289 -1 396 -11 574 -56 309 -78
677 -264 732 -371 12 -24 15 -47 10 -102 l-7 -71 35 -22 34 -22 158 272 c86
150 171 297 187 327 16 30 35 61 41 69 8 10 5 17 -9 28 -46 34 -51 33 -86 -3
-48 -51 -103 -77 -142 -69 -18 4 -80 31 -138 61 -469 237 -929 346 -1436 343
-98 -1 -209 -6 -248 -11z"/>
<path d="M36450 6803 c-360 -36 -549 -80 -788 -187 -202 -89 -434 -266 -523
-397 -109 -160 -149 -300 -150 -513 0 -276 70 -449 251 -619 220 -207 572
-306 1185 -332 324 -14 946 -56 1025 -70 112 -19 234 -59 293 -97 151 -96 238
-297 207 -479 -12 -71 -69 -202 -117 -267 -53 -72 -156 -163 -225 -198 -252
-127 -503 -185 -864 -199 -399 -17 -805 79 -1189 279 -159 83 -268 151 -307
193 -40 42 -47 70 -32 128 20 75 18 88 -21 107 -34 17 -35 17 -49 -5 -7 -12
-78 -130 -156 -262 -79 -132 -163 -273 -187 -314 -42 -69 -43 -74 -27 -92 34
-37 52 -34 109 20 36 35 62 51 80 51 14 0 88 -31 163 -69 456 -231 815 -342
1277 -397 154 -18 497 -15 670 6 281 34 531 110 739 226 136 76 211 131 305
222 179 175 271 401 271 666 0 222 -70 417 -208 583 -77 92 -243 198 -390 249
-91 31 -283 68 -437 83 -122 13 -1057 61 -1175 61 -83 0 -257 28 -366 58 -211
59 -341 184 -384 371 -21 90 -8 233 29 322 56 135 150 229 309 308 185 92 318
136 519 170 207 36 604 27 863 -20 250 -44 605 -191 721 -298 55 -50 60 -67
45 -161 -7 -45 -6 -46 30 -63 20 -10 37 -17 39 -15 8 11 345 681 345 687 0 6
-63 41 -74 41 -2 0 -22 -24 -45 -54 -22 -30 -49 -57 -59 -60 -19 -7 -87 17
-231 78 -185 80 -480 172 -663 206 -256 49 -616 72 -808 53z"/>
<path d="M11650 6685 c0 -41 2 -45 28 -50 81 -17 133 -67 134 -131 1 -83 -96
-311 -487 -1149 -20 -44 -86 -186 -145 -315 -59 -129 -127 -275 -150 -325 -23
-49 -102 -220 -175 -380 -73 -159 -154 -335 -180 -390 -26 -55 -67 -145 -92
-200 -25 -55 -65 -138 -90 -185 -121 -226 -169 -279 -286 -316 -56 -17 -57
-18 -57 -56 l0 -38 445 0 445 0 0 38 c0 35 -3 38 -62 67 -134 66 -136 113 -15
380 47 105 119 264 159 355 l75 165 939 0 939 0 145 -320 c199 -441 198 -437
205 -476 9 -47 -28 -92 -96 -116 -47 -17 -49 -19 -49 -55 l0 -38 465 0 465 0
0 38 c0 37 -1 37 -65 60 -76 28 -146 86 -200 168 -47 70 -152 282 -293 589
-60 132 -123 269 -140 305 -32 70 -126 274 -174 380 -16 36 -40 88 -53 116
-13 28 -62 134 -109 237 -214 467 -262 571 -394 857 -216 470 -242 536 -242
616 0 29 6 46 23 61 29 27 64 45 102 53 28 5 30 9 30 50 l0 45 -522 3 -523 2
0 -45z m521 -502 c17 -38 36 -81 44 -98 7 -16 48 -106 90 -200 175 -388 350
-777 507 -1127 61 -137 109 -250 106 -253 -2 -3 -356 -4 -785 -3 l-781 3 110
245 c131 295 166 371 436 975 249 558 234 525 239 525 2 0 18 -30 34 -67z"/>
<path d="M14592 6683 c3 -45 4 -47 48 -62 71 -25 107 -58 127 -115 17 -48 18
-141 18 -1571 0 -1437 -1 -1523 -18 -1571 -19 -56 -63 -95 -134 -119 -35 -12
-38 -17 -41 -54 l-3 -40 1473 -3 c1223 -3 1479 -5 1508 -17 53 -21 90 -60 121
-128 29 -62 30 -63 69 -63 l40 0 0 381 0 380 -41 -3 c-40 -3 -42 -5 -61 -53
-29 -74 -61 -111 -115 -132 -46 -17 -105 -18 -1193 -18 l-1145 0 0 1485 0
1485 22 45 c35 70 47 80 115 105 l63 23 3 46 3 46 -431 0 -431 0 3 -47z"/>
<path d="M18260 6676 l0 -55 57 -18 c69 -22 117 -65 132 -118 8 -28 11 -475
11 -1542 0 -1671 4 -1566 -67 -1630 -19 -18 -57 -39 -84 -48 l-49 -17 0 -49 0
-49 430 0 430 0 0 48 c0 47 0 47 -48 66 -69 28 -100 52 -125 99 l-22 42 -3
678 -3 677 812 0 c883 0 994 5 1188 56 190 49 369 147 460 251 47 53 123 158
145 201 8 15 28 68 46 117 118 334 59 728 -148 986 -75 93 -99 115 -192 175
-270 171 -396 183 -2022 184 l-948 0 0 -54z m2350 -310 c154 -20 236 -44 319
-93 115 -68 181 -150 227 -278 27 -76 28 -89 28 -250 0 -156 -2 -176 -25 -245
-64 -188 -194 -301 -416 -362 -76 -20 -99 -21 -950 -25 l-873 -5 0 643 0 642
783 -6 c631 -4 806 -9 907 -21z"/>
<path d="M23320 6686 l0 -43 57 -20 c111 -37 129 -116 63 -278 -28 -69 -279
-621 -395 -870 -33 -70 -97 -209 -380 -825 -34 -74 -114 -247 -177 -385 -64
-137 -157 -340 -208 -450 -209 -456 -247 -510 -383 -561 l-77 -29 0 -37 0 -38
440 0 c286 0 440 4 441 10 7 57 4 63 -51 93 -73 39 -88 53 -101 98 -18 58 -3
101 164 472 l151 337 933 0 933 0 14 -22 c19 -29 256 -544 302 -656 19 -47 38
-106 41 -131 4 -40 2 -49 -20 -69 -13 -13 -46 -31 -73 -41 -45 -17 -49 -22
-52 -55 l-3 -36 470 0 471 0 0 39 c0 34 -3 40 -27 46 -43 10 -125 52 -154 77
-74 66 -143 192 -339 618 -65 140 -196 426 -292 635 -97 209 -192 416 -213
460 -20 44 -72 157 -115 250 -43 94 -158 346 -257 560 -191 413 -241 527 -268
613 -29 90 -4 140 85 173 l60 22 0 43 0 44 -520 0 -520 0 0 -44z m880 -1302
c212 -476 387 -870 388 -875 2 -5 -315 -9 -782 -9 -433 0 -786 4 -786 9 0 4
18 46 39 92 21 46 92 201 156 344 65 143 207 456 315 695 108 239 215 474 236
523 21 48 41 87 44 87 3 0 178 -390 390 -866z"/>
<path d="M31999 6728 c-15 -57 -2 -98 32 -98 41 0 89 -34 110 -77 19 -39 20
-48 8 -96 -15 -65 -84 -243 -139 -362 -23 -49 -53 -115 -67 -145 -14 -30 -41
-89 -60 -130 -19 -41 -100 -217 -180 -390 -80 -173 -158 -342 -173 -375 -15
-33 -79 -172 -143 -310 -63 -137 -131 -286 -152 -330 -20 -44 -98 -213 -172
-375 -238 -520 -328 -683 -407 -744 -20 -15 -64 -37 -96 -48 -60 -20 -60 -20
-60 -59 l0 -39 440 0 440 0 0 38 c0 35 -3 38 -64 70 -36 19 -72 45 -81 59 -30
45 -21 117 25 218 23 50 48 104 55 120 7 17 50 113 95 215 45 102 93 209 106
238 l24 52 937 -2 938 -3 27 -55 c26 -52 52 -109 242 -534 81 -179 95 -230 77
-265 -12 -22 -99 -71 -126 -71 -11 0 -15 -11 -15 -40 l0 -40 465 0 465 0 0 38
c0 36 -2 38 -47 54 -137 49 -200 122 -328 383 -95 195 -125 258 -310 665 -59
129 -136 296 -170 370 -69 148 -305 663 -562 1225 -253 552 -269 597 -240 667
16 37 60 67 120 82 24 6 27 11 27 51 l0 45 -520 0 c-286 0 -520 -1 -521 -2z
m548 -608 c28 -63 140 -313 248 -555 109 -242 242 -539 295 -660 54 -121 117
-260 139 -308 23 -49 41 -91 41 -93 0 -2 -353 -4 -785 -4 -479 0 -785 4 -785
9 0 5 35 88 79 183 43 95 179 396 301 668 122 272 256 569 297 659 41 91 81
181 89 200 8 19 18 30 22 25 5 -5 31 -61 59 -124z"/>
<path d="M35480 2275 c0 -52 4 -95 8 -95 5 0 18 13 30 29 l22 30 160 0 160 0
0 -379 0 -380 -25 -16 c-14 -9 -25 -20 -25 -25 0 -5 47 -9 105 -9 84 0 105 3
105 14 0 8 -9 18 -20 21 -20 6 -20 15 -20 390 l0 384 161 -2 161 -2 22 -28
c12 -15 25 -24 29 -21 4 4 7 47 7 96 0 70 -3 88 -14 88 -8 0 -17 -9 -21 -20
-4 -12 -18 -22 -38 -25 -18 -3 -196 -5 -396 -3 l-364 3 -15 23 c-8 12 -18 22
-23 22 -5 0 -9 -43 -9 -95z"/>
<path d="M37255 2350 c-6 -20 -15 -20 -391 -20 -337 0 -384 -2 -384 -15 0 -9
11 -21 25 -27 l25 -11 0 -402 0 -402 -25 -11 c-61 -28 -22 -32 319 -32 384 0
433 -3 441 -31 4 -11 13 -19 21 -19 11 0 14 18 14 88 0 49 -3 92 -6 95 -4 4
-22 -7 -40 -23 l-34 -29 -282 2 -283 2 -3 168 -2 167 190 0 c191 0 191 0 214
-25 13 -14 26 -25 30 -25 3 0 6 41 6 90 0 89 -9 110 -30 70 -10 -19 -21 -20
-210 -20 l-200 0 0 150 0 150 289 0 290 0 19 -25 c34 -43 42 -32 42 65 0 71
-3 90 -14 90 -8 0 -18 -9 -21 -20z"/>
<path d="M32550 2317 c0 -8 11 -19 25 -25 l25 -12 0 -403 0 -404 -25 -11 c-14
-6 -25 -16 -25 -21 0 -6 148 -11 381 -13 l382 -3 15 -22 c8 -13 18 -23 23 -23
5 0 9 43 9 95 0 96 -10 118 -31 71 -6 -13 -21 -27 -33 -30 -11 -3 -146 -6
-298 -6 l-278 0 0 379 0 380 25 19 c45 36 32 42 -85 42 -85 0 -110 -3 -110
-13z"/>
<path d="M33470 2315 c0 -8 11 -17 25 -21 l25 -6 0 -409 0 -409 -25 -10 c-53
-20 -25 -30 85 -30 85 0 110 3 110 13 0 8 -11 19 -25 25 l-25 12 0 392 c0 216
4 398 8 404 4 6 15 13 25 17 9 3 17 13 17 22 0 13 -18 15 -110 15 -90 0 -110
-3 -110 -15z"/>
<path d="M33880 2317 c0 -7 10 -17 23 -22 l22 -10 3 -408 2 -407 -25 -10 c-51
-20 -25 -30 75 -30 78 0 100 3 100 14 0 7 -9 16 -19 19 -28 7 -32 67 -29 412
l3 300 184 -365 c100 -201 186 -368 190 -372 3 -3 89 158 191 358 l185 365 3
-338 3 -338 -26 -20 c-14 -12 -25 -24 -25 -28 0 -4 50 -7 110 -7 61 0 110 4
110 9 0 5 -10 15 -22 23 l-23 15 -3 385 c-3 388 1 438 33 438 8 0 15 7 15 15
0 13 -22 15 -140 15 -106 0 -140 -3 -140 -13 0 -7 9 -18 20 -25 11 -7 20 -18
20 -26 0 -7 -67 -150 -149 -317 l-149 -304 -146 299 c-81 165 -149 310 -152
322 -4 16 0 24 15 29 12 3 21 13 21 21 0 11 -25 14 -140 14 -106 0 -140 -3
-140 -13z"/>
<path d="M35150 2317 c0 -7 10 -17 23 -22 l22 -10 3 -407 2 -408 -25 -6 c-14
-3 -25 -12 -25 -20 0 -11 23 -14 110 -14 107 0 132 8 91 29 -37 20 -41 62 -41
415 0 354 5 407 41 426 38 21 7 30 -97 30 -77 0 -104 -3 -104 -13z"/>
<path d="M37460 2319 c0 -8 10 -19 23 -24 l22 -10 3 -402 2 -402 -25 -17 c-14
-9 -25 -21 -25 -26 0 -6 112 -8 308 -5 390 5 427 15 527 131 71 83 107 171
113 275 2 49 -1 111 -7 141 -25 118 -113 250 -195 292 -84 43 -129 49 -443 55
-257 5 -303 4 -303 -8z m634 -107 c69 -25 118 -69 151 -132 62 -123 59 -319
-8 -420 -82 -124 -128 -141 -409 -147 l-198 -4 0 366 0 366 203 -3 c179 -3
209 -6 261 -26z"/>
</g>
</svg>
